<?xml version="1.0" encoding="utf-8"?>
<!-- Generator: Adobe Illustrator 24.0.0, SVG Export Plug-In . SVG Version: 6.00 Build 0)  -->
<svg version="1.1" id="Layer_1" xmlns="http://www.w3.org/2000/svg" xmlns:xlink="http://www.w3.org/1999/xlink" x="0px" y="0px"
	 viewBox="0 0 56 72" style="enable-background:new 0 0 56 72;" xml:space="preserve">
<style type="text/css">
	.st0{fill:#103481;}
</style>
<g>
	<path class="st0" d="M53.2,7.1H23.9c-1.6,0-2.9,1.3-2.9,2.8v16.9c0,1.6,1.3,2.8,2.8,2.8H37l11,9.6l0.2-9.6h5c1.6,0,2.8-1.3,2.8-2.8
		V9.9C56,8.4,54.7,7.1,53.2,7.1z M28.9,19.4h20.7v1.7H28.9V19.4z M28.3,15.7V14h14.3v1.6H28.3V15.7z M32.1,32.8H2.8
		c-1.6,0-2.8,1.3-2.8,2.8v16.9c0,1.6,1.3,2.8,2.8,2.8h5L8,64.9l11-9.6h13.1c1.6,0,2.8-1.3,2.8-2.8V35.6C35,34,33.7,32.8,32.1,32.8z
		 M7.6,45.5h20.7v1.6H7.6V45.5z M7,41.7v-1.6h14.3v1.6H7z"/>
</g>
</svg>
