<?xml version="1.0" encoding="utf-8"?>
<!-- Generator: Adobe Illustrator 24.0.0, SVG Export Plug-In . SVG Version: 6.00 Build 0)  -->
<svg version="1.1" id="Layer_1" xmlns="http://www.w3.org/2000/svg" xmlns:xlink="http://www.w3.org/1999/xlink" x="0px" y="0px"
	 viewBox="0 0 46 72" style="enable-background:new 0 0 46 72;" xml:space="preserve">
<style type="text/css">
	.st0{fill:#063090;}
	.st1{fill:#A53232;}
</style>
<g>
	<path class="st0" d="M23.6,22.5v29.3c3.2-5.5,16.8-4.7,16.8-4.7v-30C26.5,17.2,23.6,22.5,23.6,22.5z M37.2,39.9
		c-6.5,0.1-10,2.8-10,2.8c-0.1,0.1-0.3,0.2-0.4,0.2c-0.2,0-0.4-0.1-0.6-0.3c-0.2-0.3-0.2-0.8,0.1-1c0.2-0.1,3.9-3,10.9-3.1
		c0.4,0,0.7,0.3,0.7,0.7C38,39.5,37.6,39.9,37.2,39.9z M37.2,33.3c-6.5,0.1-10,2.8-10,2.8c-0.1,0.1-0.3,0.2-0.4,0.2
		c-0.2,0-0.4-0.1-0.6-0.3c-0.2-0.3-0.2-0.8,0.1-1c0.2-0.1,3.9-3,10.9-3.1c0.4,0,0.7,0.3,0.7,0.7C38,33,37.6,33.3,37.2,33.3z
		 M37.2,26.8c-6.5,0.1-10,2.8-10,2.8c-0.1,0.1-0.3,0.2-0.4,0.2c-0.2,0-0.4-0.1-0.6-0.3c-0.2-0.3-0.2-0.8,0.1-1
		c0.2-0.1,3.9-3,10.9-3.1c0.4,0,0.7,0.3,0.7,0.7C38,26.5,37.6,26.8,37.2,26.8z"/>
	<path class="st0" d="M4.9,17.1v30c0,0,13.5-0.8,16.8,4.7V22.5C21.6,22.5,18.7,17.2,4.9,17.1z M7.3,39.1c0-0.4,0.3-0.7,0.7-0.7
		c7,0.1,10.7,3,10.9,3.1c0.3,0.2,0.4,0.7,0.1,1c-0.1,0.2-0.4,0.3-0.6,0.3c-0.2,0-0.3,0-0.4-0.2c0,0-3.5-2.7-10-2.8
		C7.6,39.9,7.3,39.5,7.3,39.1z M7.3,32.6c0-0.4,0.3-0.7,0.7-0.7c7,0.1,10.7,3,10.9,3.1c0.3,0.2,0.4,0.7,0.1,1
		c-0.1,0.2-0.4,0.3-0.6,0.3c-0.2,0-0.3,0-0.4-0.2c0,0-3.5-2.7-10-2.8C7.6,33.3,7.3,33,7.3,32.6z M7.3,26.1c0-0.4,0.3-0.7,0.7-0.7
		c7,0.1,10.7,3,10.9,3.1c0.3,0.2,0.4,0.7,0.1,1c-0.1,0.2-0.4,0.3-0.6,0.3c-0.2,0-0.3,0-0.4-0.2c0,0-3.5-2.7-10-2.8
		C7.6,26.8,7.3,26.5,7.3,26.1z"/>
	<path class="st1" d="M3.3,22.3"/>
	<path class="st0" d="M44.6,24h-1.8v26c0,0-14.6-0.9-18.6,4.9h20.5c0.8,0,1.4-0.6,1.4-1.4v-28C46,24.7,45.4,24,44.6,24z"/>
	<path class="st0" d="M2.7,50V24H1.4C0.6,24,0,24.7,0,25.5v28c0,0.8,0.6,1.4,1.4,1.4h19.9C17.2,49.1,2.7,50,2.7,50z"/>
</g>
</svg>
