<?xml version="1.0" encoding="utf-8"?>
<!-- Generator: Adobe Illustrator 24.0.0, SVG Export Plug-In . SVG Version: 6.00 Build 0)  -->
<svg version="1.1" id="Layer_1" xmlns="http://www.w3.org/2000/svg" xmlns:xlink="http://www.w3.org/1999/xlink" x="0px" y="0px"
	 viewBox="0 0 46 72" style="enable-background:new 0 0 46 72;" xml:space="preserve">
<style type="text/css">
	.st0{fill:#063090;}
	.st1{fill:#FFFFFF;}
	.st2{fill:none;stroke:#FFFFFF;stroke-miterlimit:10;}
	.st3{fill:none;}
</style>
<g>
	<path class="st0" d="M43.7,64.5H2.3C1,64.5,0,63.4,0,62.1V9.9c0-1.3,1-2.4,2.3-2.4h41.3C45,7.5,46,8.6,46,9.9v52.3
		C46,63.4,45,64.5,43.7,64.5"/>
	<rect x="6.7" y="13.5" class="st1" width="2" height="6.9"/>
	<rect x="11" y="13.5" class="st1" width="2" height="6.9"/>
	<rect x="15.3" y="13.5" class="st1" width="2" height="6.9"/>
	<rect x="19.7" y="13.5" class="st1" width="2" height="6.9"/>
	<path class="st1" d="M39,17c0,1.5-1.2,2.7-2.7,2.7c-1.5,0-2.7-1.2-2.7-2.7c0-1.5,1.2-2.7,2.7-2.7C37.8,14.3,39,15.5,39,17"/>
	<path class="st1" d="M37.3,41.2c0,7.6-6.1,13.8-13.7,13.8S10,48.9,10,41.2c0-7.6,6.1-13.8,13.7-13.8S37.3,33.6,37.3,41.2"/>
	<path class="st0" d="M34.8,41.2c0,6.2-5,11.3-11.2,11.3c-6.2,0-11.2-5.1-11.2-11.3c0-6.2,5-11.3,11.2-11.3
		C29.8,29.9,34.8,35,34.8,41.2"/>
	<path class="st1" d="M31,17c0,1.5-1.2,2.7-2.7,2.7c-1.5,0-2.7-1.2-2.7-2.7c0-1.5,1.2-2.7,2.7-2.7C29.8,14.3,31,15.5,31,17"/>
	<path class="st2" d="M28,29.8c3,8.1-4.3,11.5-4.3,11.5s-9,2.2-4.8,11"/>
	<path class="st2" d="M21.8,28.8c6.6,5.5,1.9,12.1,1.9,12.1S17,47.4,25,52.9"/>
	<path class="st2" d="M16.1,31.2c8.4,1.4,7.6,9.5,7.6,9.5s-2.6,9,7,9.7"/>
	<path class="st2" d="M12.3,36.2c8-3,11.3,4.4,11.3,4.4s2.2,9.1,10.8,4.9"/>
	<path class="st2" d="M11.4,42.4c5.4-6.7,12-1.9,12-1.9s6.4,6.8,11.8-1.2"/>
	<path class="st2" d="M13.7,48.2c1.4-8.5,9.4-7.7,9.4-7.7s8.9,2.7,9.6-7"/>
	<path class="st1" d="M25.5,41.2c0,1-0.8,1.9-1.8,1.9c-1,0-1.8-0.8-1.8-1.9c0-1,0.8-1.9,1.8-1.9C24.7,39.4,25.5,40.2,25.5,41.2"/>
	<rect y="7.5" class="st3" width="46" height="57"/>
</g>
</svg>
