<?xml version="1.0" encoding="utf-8"?>
<!-- Generator: Adobe Illustrator 24.0.0, SVG Export Plug-In . SVG Version: 6.00 Build 0)  -->
<svg version="1.1" id="Layer_1" xmlns="http://www.w3.org/2000/svg" xmlns:xlink="http://www.w3.org/1999/xlink" x="0px" y="0px"
	 viewBox="0 0 45.2 72" style="enable-background:new 0 0 45.2 72;" xml:space="preserve">
<style type="text/css">
	.st0{fill:#06318F;}
	.st1{fill:#75B2DF;}
	.st2{opacity:0.3;}
	.st3{fill:#FFFFFF;}
</style>
<g>
	<g>
		<path class="st0" d="M40.9,70.5V5.7c0-1-0.8-1.8-1.8-1.8H6C5.1,4,4.2,4.7,4.2,5.7v64.8H40.9z"/>
	</g>
	<g>
		<rect x="8" y="5.5" class="st1" width="29.2" height="33.2"/>
	</g>
	<rect y="70.1" class="st0" width="45.2" height="1.9"/>
	<g class="st2">
		<path class="st3" d="M9.6,31.9c0,0,2.7,3.6,5.5,2.4c2.7-1.2,5.7-3.2,9-2.4c3.3,0.8,4.2,3.4,6.9,2.6c2.6-0.7,5.6-1.7,5.6-1.7v7.4
			h-28L9.6,31.9z"/>
	</g>
	<g class="st2">
		<path class="st3" d="M9.6,11.4c0,0,3.8-3.5,7.6-1.7s5.6,3.3,8.2,1.7c2.5-1.7,7.7-4.6,10.2-0.8l0.9-4c0,0-2.8-2.9-4.1-2.7
			C31.2,4.1,8.7,4.4,8.7,5.2S9.6,11.4,9.6,11.4z"/>
	</g>
	<g>
		<path class="st3" d="M38.1,2.1c0-1-0.8-1.8-1.8-1.8H8.8c-1,0-1.8,0.8-1.8,1.8v40.3l0,0v6.6c0,3.8,3,6.8,6.8,6.8h17.5
			c3.8,0,6.8-3,6.8-6.8v-3l0,0V2.1L38.1,2.1z M9.6,7.5c0-0.5,0.4-0.8,0.8-0.8h24.3c0.5,0,0.8,0.4,0.8,0.8v29.8h-26V7.5z"/>
		<path class="st0" d="M31.3,55.9H13.8c-3.9,0-7.1-3.1-7.1-7.1V2c0.1-1,0.9-2,2.1-2h27.4c1.1,0,2.1,0.9,2.1,2.1v46.9
			C38.3,52.8,35.2,55.9,31.3,55.9z M8.8,0.5C8,0.5,7.2,1.1,7.2,2.1v46.9c0,3.6,2.9,6.5,6.5,6.5h17.5c3.6,0,6.5-2.9,6.5-6.5V2.1
			c0-0.8-0.7-1.6-1.6-1.6C36.1,0.5,8.8,0.5,8.8,0.5z M35.6,37.6h-26c-0.1,0-0.3-0.1-0.3-0.3V7.5c0-0.7,0.5-1.1,1.1-1.1h24.3
			c0.7,0,1.1,0.5,1.1,1.1v29.8C35.9,37.5,35.8,37.6,35.6,37.6z M9.8,37.1h25.5V7.5c0-0.4-0.3-0.7-0.7-0.7H10.4
			c-0.4,0-0.7,0.3-0.7,0.7C9.8,7.5,9.8,37.1,9.8,37.1z"/>
	</g>
	<g>
		<g>
			<path class="st3" d="M30.1,16.7C30,16.8,30,16.9,29.9,17c-0.1,0.1-0.2,0.2-0.4,0.4c-0.1,0.1-0.3,0.2-0.5,0.2
				c-0.2,0.1-0.3,0.1-0.5,0.1s-0.3,0-0.4-0.1S28,17.5,28,17.4c-0.1-0.1-0.1-0.2-0.1-0.3c0-0.1,0-0.3,0.1-0.4
				c0.1-0.2,0.1-0.3,0.2-0.4s0.2-0.2,0.4-0.3c0.1-0.1,0.3-0.2,0.5-0.2c0.2-0.1,0.3-0.1,0.5-0.1s0.3,0,0.4,0.1s0.2,0.1,0.3,0.2
				s0.1,0.2,0.1,0.4C30.2,16.4,30.2,16.5,30.1,16.7 M28.9,17c0.1,0,0.2,0,0.4-0.1c0.1-0.1,0.2-0.2,0.2-0.3c0.1-0.1,0.1-0.3,0-0.3
				c0-0.1-0.1-0.1-0.3-0.1c-0.1,0-0.2,0-0.4,0.1c-0.1,0.1-0.2,0.2-0.2,0.3c-0.1,0.1-0.1,0.3,0,0.3C28.7,17,28.7,17,28.9,17"/>
		</g>
		<g>
			<path class="st3" d="M29.4,15.1c-0.4,0.1-0.8,0.3-1,0.5h0.1l0,0l0,0l0.1-0.1C28.8,15.2,29.1,15.2,29.4,15.1
				c0.5,0.1,0.7,0.2,0.8,0.5h0.7c-0.3-0.3-0.6-0.4-0.8-0.5C29.8,15.1,29.6,15,29.4,15.1"/>
		</g>
		<g>
			<path class="st3" d="M28.7,18.3c0.4-0.1,0.8-0.3,1-0.5h-0.1l0,0l0,0l-0.1,0.1C29.3,18.1,29,18.2,28.7,18.3
				c-0.5-0.1-0.7-0.2-0.8-0.5h-0.7c0.3,0.3,0.6,0.4,0.8,0.5C28.1,18.3,28.4,18.3,28.7,18.3"/>
		</g>
		<g>
			<path class="st3" d="M17.7,15.1h-0.8c0,0-0.8,1-0.9,1.2c0.1-0.2,0.4-1.2,0.4-1.2h-0.6c0,0-0.8,1-0.8,1.2c0-0.2,0.2-1.2,0.2-1.2
				h-0.8l-0.3,2.5h0.5c0,0,0.7-0.8,0.8-1c-0.1,0.2-0.3,1-0.3,1h0.7L17.7,15.1L17.7,15.1z"/>
		</g>
		<g>
			<path class="st3" d="M18.4,17.6l-0.1-1.9h-0.8l-1.6,1.9h0.7l0.3-0.3h0.8v0.3H18.4z M17.3,16.8l0.5-0.6v0.6
				C17.7,16.8,17.4,16.8,17.3,16.8z"/>
		</g>
		<g>
			<path class="st3" d="M18.5,17.5c0.2,0.1,0.4,0.1,0.5,0.1c0.6,0,0.9-0.2,1.1-0.6c0.1-0.4-0.1-0.5-0.4-0.7
				c-0.2-0.1-0.2-0.2-0.2-0.2c0-0.1,0.1-0.1,0.3-0.1c0.3,0,0.5,0.2,0.5,0.2l0.2-0.5l0,0c-0.2-0.2-0.5-0.3-0.8-0.3
				c-0.5,0-0.8,0.2-0.9,0.6c-0.1,0.3,0,0.6,0.2,0.7h0.1c0.1,0.1,0.2,0.1,0.1,0.2c0,0.1-0.2,0.1-0.3,0.1c-0.3,0-0.6-0.2-0.6-0.2
				L18.5,17.5z"/>
		</g>
		<g>
			<path class="st3" d="M22,15.7l-0.3,0.7h-0.5c0-0.1,0.3-0.7,0.3-0.7h-0.7L20,17.6h0.7l0.3-0.7h0.5l-0.3,0.7h0.7l0.8-1.9H22z"/>
		</g>
		<g>
			<polygon class="st3" points="24.7,15.6 24.9,15.1 23.2,15.1 22.1,17.6 23.8,17.6 24.1,17 23.2,17 23.3,16.6 24.2,16.6 24.5,16 
				23.5,16 23.7,15.6 			"/>
		</g>
		<g>
			<path class="st3" d="M27.5,15.7l-0.5,1c-0.1,0.2-0.2,0.3-0.3,0.3h-0.3l-0.3,0.6h0.7c0.4,0,0.7-0.2,0.9-0.7l0.6-1.2H27.5
				L27.5,15.7z"/>
		</g>
		<g>
			<path class="st3" d="M31.6,15.7c0,0-0.5,0.5-0.6,0.5c0-0.1-0.1-0.5-0.1-0.5h-0.7l0.3,1l-0.5,0.8h0.7l0.4-0.8l1.3-1.1H31.6z"/>
		</g>
		<g>
			<polygon class="st3" points="24.8,15.7 25.5,15.7 25.6,16.7 26.1,15.7 26.7,15.7 25.9,17.6 25.3,17.6 25.1,16.6 24.8,17.6 
				24,17.6 			"/>
		</g>
	</g>
	<g>
		<g>
			<path class="st3" d="M21.9,22.1c0,0.3-0.2,0.5-0.5,0.5h-5.8c-0.3,0-0.5-0.2-0.5-0.5l0,0c0-0.3,0.2-0.5,0.5-0.5h5.8
				C21.7,21.6,21.9,21.8,21.9,22.1L21.9,22.1z"/>
		</g>
		<g>
			<path class="st3" d="M30.3,22.1c0,0.3-0.2,0.5-0.5,0.5H24c-0.3,0-0.5-0.2-0.5-0.5l0,0c0-0.3,0.2-0.5,0.5-0.5h5.8
				C30.1,21.6,30.3,21.8,30.3,22.1L30.3,22.1z"/>
		</g>
	</g>
	<g>
		<g>
			<path class="st3" d="M21.9,24.1c0,0.3-0.2,0.5-0.5,0.5h-5.8c-0.3,0-0.5-0.2-0.5-0.5l0,0c0-0.3,0.2-0.5,0.5-0.5h5.8
				C21.7,23.6,21.9,23.9,21.9,24.1L21.9,24.1z"/>
		</g>
		<g>
			<path class="st3" d="M30.3,24.1c0,0.3-0.2,0.5-0.5,0.5H24c-0.3,0-0.5-0.2-0.5-0.5l0,0c0-0.3,0.2-0.5,0.5-0.5h5.8
				C30.1,23.6,30.3,23.9,30.3,24.1L30.3,24.1z"/>
		</g>
	</g>
	<g>
		<g>
			<path class="st3" d="M21.9,26.3c0,0.3-0.2,0.5-0.5,0.5h-5.8c-0.3,0-0.5-0.2-0.5-0.5l0,0c0-0.3,0.2-0.5,0.5-0.5h5.8
				C21.7,25.8,21.9,26,21.9,26.3L21.9,26.3z"/>
		</g>
		<g>
			<path class="st3" d="M30.3,26.3c0,0.3-0.2,0.5-0.5,0.5H24c-0.3,0-0.5-0.2-0.5-0.5l0,0c0-0.3,0.2-0.5,0.5-0.5h5.8
				C30.1,25.8,30.3,26,30.3,26.3L30.3,26.3z"/>
		</g>
	</g>
	<g>
		<g>
			<path class="st3" d="M21.9,28.4c0,0.3-0.2,0.5-0.5,0.5h-5.8c-0.3,0-0.5-0.2-0.5-0.5l0,0c0-0.3,0.2-0.5,0.5-0.5h5.8
				C21.7,28,21.9,28.1,21.9,28.4L21.9,28.4z"/>
		</g>
		<g>
			<path class="st3" d="M30.3,28.4c0,0.3-0.2,0.5-0.5,0.5H24c-0.3,0-0.5-0.2-0.5-0.5l0,0c0-0.3,0.2-0.5,0.5-0.5h5.8
				C30.1,28,30.3,28.1,30.3,28.4L30.3,28.4z"/>
		</g>
	</g>
	<g>
		<path class="st0" d="M35.7,40.6c0,0.3-0.2,0.5-0.5,0.5h-6.5c-0.3,0-0.5-0.2-0.5-0.5v-0.1c0-0.3,0.2-0.5,0.5-0.5h6.5
			C35.5,40.1,35.7,40.3,35.7,40.6L35.7,40.6L35.7,40.6z"/>
	</g>
	<g>
		<path class="st0" d="M35.7,46c0,0.3-0.2,0.5-0.5,0.5h-6.7c-0.3,0-0.5-0.2-0.5-0.5v-2.4c0-0.3,0.2-0.5,0.5-0.5h6.7
			c0.3,0,0.5,0.2,0.5,0.5V46z"/>
	</g>
	<g>
		<path class="st0" d="M18.5,45.9c0-0.3-0.2-0.5-0.5-0.5H10c-0.3,0-0.5,0.2-0.5,0.5v1.1l0,0V50h8.9v-2.9l0,0L18.5,45.9L18.5,45.9z
			 M10.3,49.4v-1.9h7.6v1.9H10.3L10.3,49.4z"/>
	</g>
</g>
</svg>
